# xmcd
#
# Track frame offsets: 
#        150
#        21176
#        33151
#        51073
#        77270
#        95018
#        112027
#        133849
#        148084
#        162803
#        183283
#        201640
#        222291
#        223804
#        243179
#        243759
#        266828
#
# Disc length: 3975 seconds
#
# Revision: 1
# Processed by: cddbd v1.5.2PL0 Copyright (c) Steve Scherf et al.
# Submitted via: ExactAudioCopy v0.99pb4
#
DISCID=f60f8511
DTITLE=Willie Mabon - Shake That Thing
DYEAR=1973
DGENRE=Blues
TTITLE0=Shake That Thing (alternate take)
TTITLE1=Poison Ivy
TTITLE2=Got To Have Some (take 2)
TTITLE3=Riverboat
TTITLE4=Worry Blues
TTITLE5=Hungry
TTITLE6=Hey Girl
TTITLE7=I Enjoyed Myself in Pau
TTITLE8=I'm Mad
TTITLE9=Lover Girl
TTITLE10=Got To Have Some ((take 1)
TTITLE11=Shake That Thing (original take)
TTITLE12=monologue Dave Myers
TTITLE13=I Don't Know
TTITLE14=monologue
TTITLE15=Cold Chilly Woman
TTITLE16=Shake That Thing
EXTD=YEAR: 1973
EXTT0=
EXTT1=
EXTT2=
EXTT3=
EXTT4=
EXTT5=
EXTT6=
EXTT7=
EXTT8=
EXTT9=
EXTT10=
EXTT11=
EXTT12=
EXTT13=
EXTT14=
EXTT15=
EXTT16=
PLAYORDER=
